<?xml version="1.0" encoding="UTF-8" standalone="no"?>
<!DOCTYPE svg PUBLIC "-//W3C//DTD SVG 1.1//EN" "http://www.w3.org/Graphics/SVG/1.1/DTD/svg11.dtd">
<svg version="1.1" xmlns="http://www.w3.org/2000/svg" xmlns:xlink="http://www.w3.org/1999/xlink" preserveAspectRatio="xMidYMid meet" viewBox="0 0 640 640" width="640" height="640"><defs><path d="M320 640C143.39 640 0 496.61 0 320C0 143.39 143.39 0 320 0C496.61 0 640 143.39 640 320C640 496.61 496.61 640 320 640Z" id="kzozvu3zN"></path><linearGradient id="gradientb9XlHsnGM" gradientUnits="userSpaceOnUse" x1="546.29" y1="93.71" x2="31.47" y2="605.73"><stop style="stop-color: #590000;stop-opacity: 1" offset="0%"></stop><stop style="stop-color: #000c5f;stop-opacity: 1" offset="100%"></stop></linearGradient><path d="M320 601.68C164.54 601.68 38.32 475.46 38.32 320C38.32 164.54 164.54 38.32 320 38.32C475.46 38.32 601.68 164.54 601.68 320C601.68 475.46 475.46 601.68 320 601.68Z" id="a2xnNIvua"></path><path d="M398.01 221.03L366.99 221.03L378.29 236.59L436.58 316.9L399.75 316.9L479.49 426.77L359.33 426.77L359.33 526.45L280.67 526.45L280.67 426.77L160.51 426.77L240.25 316.9L203.42 316.9L261.7 236.59L273 221.03L241.99 221.03L280.99 167.29L320 113.55L359.01 167.29L398.01 221.03Z" id="d1IpUQUWo5"></path></defs><g><g><g><use xlink:href="#kzozvu3zN" opacity="1" fill="url(#gradientb9XlHsnGM)"></use><g><use xlink:href="#kzozvu3zN" opacity="1" fill-opacity="0" stroke="#000000" stroke-width="1" stroke-opacity="0"></use></g></g><g><use xlink:href="#a2xnNIvua" opacity="1" fill="#000000" fill-opacity="0"></use><g><use xlink:href="#a2xnNIvua" opacity="1" fill-opacity="0" stroke="#ffffff" stroke-width="27" stroke-opacity="1"></use></g></g><g><use xlink:href="#d1IpUQUWo5" opacity="1" fill="#ffffff" fill-opacity="1"></use></g></g></g></svg>