<?xml version="1.0" encoding="UTF-8" standalone="no"?>
<!DOCTYPE svg PUBLIC "-//W3C//DTD SVG 1.1//EN" "http://www.w3.org/Graphics/SVG/1.1/DTD/svg11.dtd">
<svg version="1.1" xmlns="http://www.w3.org/2000/svg" xmlns:xlink="http://www.w3.org/1999/xlink" preserveAspectRatio="xMidYMid meet" viewBox="0 0 640 640" width="640" height="640"><defs><path d="M0 0L640 0L640 640L0 640L0 0Z" id="fnracs8Mp"></path><linearGradient id="gradientaxfaBNttY" gradientUnits="userSpaceOnUse" x1="603.22" y1="38.32" x2="1.82" y2="640"><stop style="stop-color: #590000;stop-opacity: 1" offset="0%"></stop><stop style="stop-color: #060b59;stop-opacity: 1" offset="100%"></stop></linearGradient><path d="M320 601.68C164.54 601.68 38.32 475.46 38.32 320C38.32 164.54 164.54 38.32 320 38.32C475.46 38.32 601.68 164.54 601.68 320C601.68 475.46 475.46 601.68 320 601.68Z" id="afYLb2VNn"></path><path d="M452.87 361.81L163.1 439.46L137.21 342.86L542.9 234.16L452.87 361.81Z" id="c4FRq7Kc4x"></path><path d="M484.87 449.95L121.13 239.95L275.06 213.34L534.87 363.34L484.87 449.95Z" id="e18um85aAn"></path><path d="M354.33 508.04L257.74 482.16L335.38 192.38L366.44 76.47L431.98 218.26L431.98 218.26L354.33 508.04Z" id="a4U3bnVY2"></path></defs><g><g><g><use xlink:href="#fnracs8Mp" opacity="1" fill="url(#gradientaxfaBNttY)"></use></g><g><use xlink:href="#afYLb2VNn" opacity="1" fill="#000000" fill-opacity="0"></use><g><use xlink:href="#afYLb2VNn" opacity="1" fill-opacity="0" stroke="#ffffff" stroke-width="27" stroke-opacity="1"></use></g></g><g><use xlink:href="#c4FRq7Kc4x" opacity="1" fill="#ffffff" fill-opacity="1"></use></g><g><use xlink:href="#e18um85aAn" opacity="1" fill="#ffffff" fill-opacity="1"></use></g><g><use xlink:href="#a4U3bnVY2" opacity="1" fill="#ffffff" fill-opacity="1"></use></g></g></g></svg>