<?xml version="1.0" encoding="UTF-8" standalone="no"?>
<svg
   version="1.1"
   preserveAspectRatio="xMidYMid meet"
   viewBox="0 0 640 640"
   width="640"
   height="640"
   id="svg58"
   sodipodi:docname="shards.svg"
   inkscape:version="1.1.2 (0a00cf5339, 2022-02-04, custom)"
   xmlns:inkscape="http://www.inkscape.org/namespaces/inkscape"
   xmlns:sodipodi="http://sodipodi.sourceforge.net/DTD/sodipodi-0.dtd"
   xmlns:xlink="http://www.w3.org/1999/xlink"
   xmlns="http://www.w3.org/2000/svg"
   xmlns:svg="http://www.w3.org/2000/svg">
  <sodipodi:namedview
     id="namedview60"
     pagecolor="#505050"
     bordercolor="#eeeeee"
     borderopacity="1"
     inkscape:pageshadow="0"
     inkscape:pageopacity="0"
     inkscape:pagecheckerboard="0"
     showgrid="false"
     inkscape:zoom="1.065625"
     inkscape:cx="319.53079"
     inkscape:cy="319.53079"
     inkscape:window-width="1920"
     inkscape:window-height="1029"
     inkscape:window-x="1920"
     inkscape:window-y="27"
     inkscape:window-maximized="1"
     inkscape:current-layer="svg58" />
  <defs
     id="defs12">
    <path
       d="M320 640C143.39 640 0 496.61 0 320C0 143.39 143.39 0 320 0C496.61 0 640 143.39 640 320C640 496.61 496.61 640 320 640Z"
       id="a1DvTYHEiP" />
    <linearGradient
       id="gradiente9DblpIbrU"
       gradientUnits="userSpaceOnUse"
       x1="546.29"
       y1="93.71"
       x2="31.47"
       y2="605.73">
      <stop
         style="stop-color: #590000;stop-opacity: 1"
         offset="0%"
         id="stop3" />
      <stop
         style="stop-color: #000c5f;stop-opacity: 1"
         offset="100%"
         id="stop5" />
    </linearGradient>
    <path
       d="M320 601.68C164.54 601.68 38.32 475.46 38.32 320C38.32 164.54 164.54 38.32 320 38.32C475.46 38.32 601.68 164.54 601.68 320C601.68 475.46 475.46 601.68 320 601.68Z"
       id="d1PNsik5I" />
    <path
       d="M442.87 351.81L153.1 429.46L127.21 332.86L532.9 224.16L442.87 351.81Z"
       id="b7qoIR2vVS" />
    <path
       d="M474.87 439.95L111.13 229.95L265.06 203.34L524.87 353.34L474.87 439.95Z"
       id="c2ubFZXVG" />
    <path
       d="M344.33 498.04L247.74 472.16L325.38 182.38L356.44 66.47L421.98 208.26L421.98 208.26L344.33 498.04Z"
       id="b2tpi3w8PL" />
  </defs>
  <g
     id="g20">
    <use
       xlink:href="#a1DvTYHEiP"
       opacity="1"
       fill="url(#gradiente9DblpIbrU)"
       id="use14"
       style="fill:url(#gradiente9DblpIbrU)"
       x="0"
       y="0"
       width="100%"
       height="100%" />
    <g
       id="g18">
      <use
         xlink:href="#a1DvTYHEiP"
         opacity="1"
         fill-opacity="0"
         stroke="#000000"
         stroke-width="1"
         stroke-opacity="0"
         id="use16"
         x="0"
         y="0"
         width="100%"
         height="100%" />
    </g>
  </g>
  <g
     id="g28">
    <use
       xlink:href="#d1PNsik5I"
       opacity="1"
       fill="#000000"
       fill-opacity="0"
       id="use22"
       x="0"
       y="0"
       width="100%"
       height="100%" />
    <g
       id="g26">
      <use
         xlink:href="#d1PNsik5I"
         opacity="1"
         fill-opacity="0"
         stroke="#ffffff"
         stroke-width="27"
         stroke-opacity="1"
         id="use24"
         x="0"
         y="0"
         width="100%"
         height="100%" />
    </g>
  </g>
  <g
     id="g115">
    <g
       id="g36">
      <use
         xlink:href="#b7qoIR2vVS"
         opacity="1"
         fill="#ffffff"
         fill-opacity="1"
         id="use30"
         x="0"
         y="0"
         width="100%"
         height="100%" />
      <g
         id="g34">
        <use
           xlink:href="#b7qoIR2vVS"
           opacity="1"
           fill-opacity="0"
           stroke="#000000"
           stroke-width="1"
           stroke-opacity="0"
           id="use32"
           x="0"
           y="0"
           width="100%"
           height="100%" />
      </g>
    </g>
    <g
       id="g44">
      <use
         xlink:href="#c2ubFZXVG"
         opacity="1"
         fill="#ffffff"
         fill-opacity="1"
         id="use38"
         x="0"
         y="0"
         width="100%"
         height="100%" />
      <g
         id="g42">
        <use
           xlink:href="#c2ubFZXVG"
           opacity="1"
           fill-opacity="0"
           stroke="#000000"
           stroke-width="1"
           stroke-opacity="0"
           id="use40"
           x="0"
           y="0"
           width="100%"
           height="100%" />
      </g>
    </g>
    <g
       id="g52">
      <use
         xlink:href="#b2tpi3w8PL"
         opacity="1"
         fill="#ffffff"
         fill-opacity="1"
         id="use46"
         x="0"
         y="0"
         width="100%"
         height="100%" />
      <g
         id="g50">
        <use
           xlink:href="#b2tpi3w8PL"
           opacity="1"
           fill-opacity="0"
           stroke="#000000"
           stroke-width="1"
           stroke-opacity="0"
           id="use48"
           x="0"
           y="0"
           width="100%"
           height="100%" />
      </g>
    </g>
  </g>
</svg>
