<?xml version="1.0" encoding="UTF-8" standalone="no"?>
<!DOCTYPE svg PUBLIC "-//W3C//DTD SVG 1.1//EN" "http://www.w3.org/Graphics/SVG/1.1/DTD/svg11.dtd">
<svg version="1.1" xmlns="http://www.w3.org/2000/svg" xmlns:xlink="http://www.w3.org/1999/xlink" preserveAspectRatio="xMidYMid meet" viewBox="0 0 640 640" width="640" height="640"><defs><path d="M320 640C143.39 640 0 496.61 0 320C0 143.39 143.39 0 320 0C496.61 0 640 143.39 640 320C640 496.61 496.61 640 320 640Z" id="c3emeK4rOn"></path><linearGradient id="gradienth5Z1F4ni3h" gradientUnits="userSpaceOnUse" x1="546.29" y1="93.71" x2="31.47" y2="605.73"><stop style="stop-color: #590000;stop-opacity: 1" offset="0%"></stop><stop style="stop-color: #000c5f;stop-opacity: 1" offset="100%"></stop></linearGradient><path d="M320 601.68C164.54 601.68 38.32 475.46 38.32 320C38.32 164.54 164.54 38.32 320 38.32C475.46 38.32 601.68 164.54 601.68 320C601.68 475.46 475.46 601.68 320 601.68Z" id="an6R7EOqx"></path><path d="M429.38 188.75C465.62 188.75 495 218.13 495 254.38C495 293.75 495 346.25 495 385.63C495 421.87 465.62 451.25 429.38 451.25C372.5 451.25 267.5 451.25 210.63 451.25C174.38 451.25 145 421.87 145 385.63C145 346.25 145 293.75 145 254.38C145 218.13 174.38 188.75 210.63 188.75C267.5 188.75 372.5 188.75 429.38 188.75Z" id="g2vPOHb2TM"></path><path d="M440.36 320C440.36 365.48 403.44 402.41 357.96 402.41C312.47 402.41 275.55 365.48 275.55 320C275.55 274.52 312.47 237.59 357.96 237.59C403.44 237.59 440.36 274.52 440.36 320Z" id="eHzioYvwz"></path><path d="M234.01 251.09C234.01 259.37 227.29 266.09 219.01 266.09C210.74 266.09 204.01 259.37 204.01 251.09C204.01 242.82 210.74 236.09 219.01 236.09C227.29 236.09 234.01 242.82 234.01 251.09Z" id="b1AT45Hsyw"></path><path d="M250.8 157.3C256.33 157.3 260.8 161.78 260.8 167.3C260.8 173.3 260.8 181.3 260.8 187.3C260.8 192.82 256.33 197.3 250.8 197.3C241.01 197.3 221.62 197.3 211.82 197.3C206.3 197.3 201.82 192.82 201.82 187.3C201.82 181.3 201.82 173.3 201.82 167.3C201.82 161.78 206.3 157.3 211.82 157.3C221.62 157.3 241.01 157.3 250.8 157.3Z" id="a1YQy1TxmY"></path></defs><g><g><g><use xlink:href="#c3emeK4rOn" opacity="1" fill="url(#gradienth5Z1F4ni3h)"></use><g><use xlink:href="#c3emeK4rOn" opacity="1" fill-opacity="0" stroke="#000000" stroke-width="1" stroke-opacity="0"></use></g></g><g><use xlink:href="#an6R7EOqx" opacity="1" fill="#000000" fill-opacity="0"></use><g><use xlink:href="#an6R7EOqx" opacity="1" fill-opacity="0" stroke="#ffffff" stroke-width="27" stroke-opacity="1"></use></g></g><g><g><use xlink:href="#g2vPOHb2TM" opacity="1" fill-opacity="0" stroke="#ffffff" stroke-width="21" stroke-opacity="1"></use></g></g><g><g><use xlink:href="#eHzioYvwz" opacity="1" fill-opacity="0" stroke="#ffffff" stroke-width="13" stroke-opacity="1"></use></g></g><g><g><use xlink:href="#b1AT45Hsyw" opacity="1" fill-opacity="0" stroke="#ffffff" stroke-width="5" stroke-opacity="1"></use></g></g><g><use xlink:href="#a1YQy1TxmY" opacity="1" fill="#ffffff" fill-opacity="1"></use></g></g></g></svg>