<?xml version="1.0" encoding="UTF-8" standalone="no"?>
<!DOCTYPE svg PUBLIC "-//W3C//DTD SVG 1.1//EN" "http://www.w3.org/Graphics/SVG/1.1/DTD/svg11.dtd">
<svg version="1.1" xmlns="http://www.w3.org/2000/svg" xmlns:xlink="http://www.w3.org/1999/xlink" preserveAspectRatio="xMidYMid meet" viewBox="0 0 640 640" width="640" height="640"><defs><path d="M0 0L640 0L640 640L0 640L0 0Z" id="j1l6m7xMOW"></path><linearGradient id="gradientc7Tyk1gba" gradientUnits="userSpaceOnUse" x1="603.22" y1="38.32" x2="1.82" y2="640"><stop style="stop-color: #590000;stop-opacity: 1" offset="0%"></stop><stop style="stop-color: #060b59;stop-opacity: 1" offset="100%"></stop></linearGradient><path d="M320 601.68C164.54 601.68 38.32 475.46 38.32 320C38.32 164.54 164.54 38.32 320 38.32C475.46 38.32 601.68 164.54 601.68 320C601.68 475.46 475.46 601.68 320 601.68Z" id="a2w9uBva9G"></path><path d="M169.72 452.23L166.26 451.66L162.86 450.96L159.5 450.15L156.2 449.22L152.96 448.17L149.78 447.03L146.66 445.76L143.6 444.41L140.61 442.94L137.7 441.37L134.86 439.72L132.09 437.96L129.41 436.1L126.8 434.17L124.28 432.13L121.85 430.03L119.51 427.84L117.27 425.55L115.12 423.21L113.07 420.79L111.12 418.29L109.28 415.73L107.55 413.1L105.92 410.4L104.41 407.63L103.02 404.81L101.74 401.94L100.59 399.01L99.57 396.04L98.67 393.01L97.9 389.93L97.26 386.82L96.76 383.67L96.4 380.47L96.18 377.23L96.11 373.97L96.18 370.69L96.4 367.47L96.76 364.26L97.26 361.1L97.9 357.99L98.67 354.92L99.57 351.9L100.59 348.92L101.74 345.98L103.02 343.11L104.41 340.29L105.92 337.54L107.55 334.84L109.28 332.21L111.12 329.65L113.07 327.15L115.12 324.72L117.27 322.37L119.51 320.09L121.85 317.9L124.28 315.79L126.8 313.76L129.41 311.82L132.09 309.97L134.86 308.21L137.7 306.55L140.61 304.98L143.6 303.52L146.66 302.16L149.78 300.9L152.96 299.75L156.2 298.71L159.5 297.78L161.39 297.33L161.46 294.15L161.68 290.92L162.04 287.72L162.54 284.56L163.17 281.44L163.94 278.37L164.84 275.34L165.87 272.36L167.02 269.44L168.29 266.56L169.69 263.76L171.2 260.99L172.82 258.29L174.56 255.66L176.4 253.09L178.35 250.6L180.39 248.17L182.54 245.82L184.79 243.55L187.13 241.36L189.56 239.24L192.08 237.22L194.68 235.28L197.37 233.43L200.13 231.67L202.97 230.01L205.89 228.44L208.88 226.98L211.93 225.61L215.05 224.35L218.24 223.2L221.48 222.16L224.78 221.24L228.13 220.42L231.54 219.73L234.99 219.16L238.49 218.71L242.03 218.38L245.62 218.18L249.23 218.12L252.85 218.18L256.43 218.38L259.98 218.71L263.48 219.16L266.93 219.73L270.33 220.42L273.69 221.24L276.99 222.16L280.23 223.2L283.41 224.35L286.54 225.61L289.59 226.98L292.58 228.44L295.49 230.01L298.34 231.67L301.1 233.43L301.35 233.6L302.36 231.92L304.31 228.96L306.39 226.08L308.58 223.27L310.88 220.54L313.3 217.9L315.83 215.34L318.46 212.87L321.19 210.5L324.02 208.22L326.95 206.03L329.97 203.95L333.09 201.97L336.28 200.1L339.56 198.34L342.92 196.69L346.36 195.16L349.87 193.75L353.45 192.45L357.1 191.28L360.81 190.24L364.59 189.32L368.42 188.54L372.3 187.9L376.24 187.39L380.23 187.03L384.25 186.8L388.33 186.73L392.4 186.8L396.43 187.03L400.41 187.39L404.35 187.9L408.23 188.54L412.06 189.32L415.84 190.24L419.55 191.28L423.2 192.45L426.78 193.75L430.29 195.16L433.73 196.69L437.09 198.34L440.37 200.1L443.57 201.97L446.68 203.95L449.7 206.03L452.63 208.22L455.46 210.5L458.19 212.87L460.83 215.34L463.35 217.9L465.77 220.54L468.08 223.27L470.27 226.08L472.34 228.96L474.29 231.92L476.12 234.96L477.81 238.06L479.38 241.23L480.82 244.46L482.11 247.76L483.27 251.11L484.28 254.51L485.14 257.97L485.86 261.48L486.42 265.03L486.83 268.64L487.07 272.27L487.15 275.94L487.07 279.61L486.83 283.26L486.42 286.85L485.86 290.4L485.14 293.91L484.28 297.37L483.87 298.73L487.04 299.75L490.22 300.9L493.34 302.16L496.4 303.52L499.39 304.98L502.3 306.55L505.14 308.21L507.91 309.97L510.59 311.82L513.2 313.76L515.72 315.79L518.15 317.9L520.49 320.09L522.73 322.37L524.88 324.72L526.93 327.15L528.88 329.65L530.72 332.21L532.45 334.84L534.08 337.54L535.59 340.29L536.98 343.11L538.26 345.98L539.41 348.92L540.43 351.9L541.33 354.92L542.1 357.99L542.74 361.1L543.24 364.26L543.6 367.47L543.82 370.69L543.89 373.97L543.82 377.23L543.6 380.47L543.24 383.67L542.74 386.82L542.1 389.93L541.33 393.01L540.43 396.04L539.41 399.01L538.26 401.94L536.98 404.81L535.59 407.63L534.08 410.4L532.45 413.1L530.72 415.73L528.88 418.29L526.93 420.79L524.88 423.21L522.73 425.55L520.49 427.84L518.15 430.03L515.72 432.13L513.2 434.17L510.59 436.1L507.91 437.96L505.14 439.72L502.3 441.37L499.39 442.94L496.4 444.41L493.34 445.76L490.22 447.03L487.04 448.17L483.8 449.22L480.5 450.15L477.14 450.96L473.74 451.66L470.28 452.23L466.78 452.67L463.24 452.99L459.66 453.19L456.04 453.26L452.42 453.19L448.84 452.99L447.5 452.87L447.5 453.26L183.96 453.26L180.34 453.19L176.76 452.99L173.22 452.67L169.72 452.23Z" id="e27wMDVkgE"></path></defs><g><g><g><use xlink:href="#j1l6m7xMOW" opacity="1" fill="url(#gradientc7Tyk1gba)"></use></g><g><use xlink:href="#a2w9uBva9G" opacity="1" fill="#000000" fill-opacity="0"></use><g><use xlink:href="#a2w9uBva9G" opacity="1" fill-opacity="0" stroke="#ffffff" stroke-width="27" stroke-opacity="1"></use></g></g><g><use xlink:href="#e27wMDVkgE" opacity="1" fill="#ffffff" fill-opacity="1"></use><g><use xlink:href="#e27wMDVkgE" opacity="1" fill-opacity="0" stroke="#000000" stroke-width="1" stroke-opacity="0"></use></g></g></g></g></svg>